<svg width="24" height="24" viewBox="0 0 24 24" fill="none" xmlns="http://www.w3.org/2000/svg">
<g clip-path="url(#clip0_168_160)">
<path d="M12.2382 2.98923C11.8243 2.99569 11.494 3.33613 11.4999 3.74997V18.4394L5.78016 12.7197C5.59205 12.5238 5.31271 12.4449 5.04989 12.5134C4.78706 12.5819 4.58181 12.7871 4.51329 13.05C4.44477 13.3128 4.52369 13.5921 4.71962 13.7802L11.7196 20.7802C12.0125 21.073 12.4873 21.073 12.7802 20.7802L19.7802 13.7802C19.9761 13.5921 20.055 13.3128 19.9865 13.05C19.918 12.7871 19.7127 12.5819 19.4499 12.5134C19.1871 12.4449 18.9077 12.5238 18.7196 12.7197L12.9999 18.4394V3.74997C13.0028 3.54716 12.9235 3.35182 12.7799 3.20849C12.6364 3.06516 12.441 2.98606 12.2382 2.98923H12.2382Z" fill="white"/>
</g>
<defs>
<clipPath id="clip0_168_160">
<rect width="24" height="24" fill="white"/>
</clipPath>
</defs>
</svg>
