<svg width="56" height="56" viewBox="0 0 56 56" fill="none" xmlns="http://www.w3.org/2000/svg">
<g clip-path="url(#clip0_117_2)">
<path d="M21.5653 52.5182C20.8528 52.518 20.2116 52.0861 19.9438 51.4259C19.6761 50.7657 19.8352 50.0091 20.3462 49.5127L41.8589 28L20.3462 6.4873C19.889 6.04837 19.7049 5.39659 19.8648 4.78333C20.0246 4.17007 20.5036 3.69114 21.1168 3.53127C21.7301 3.37139 22.3819 3.55554 22.8208 4.01269L45.5708 26.7627C46.2539 27.4461 46.2539 28.5539 45.5708 29.2373L22.8208 51.9873C22.4912 52.3267 22.0383 52.5182 21.5653 52.5182H21.5653Z" fill="white" stroke="white" stroke-width="2" stroke-linejoin="round"/>
</g>
<defs>
<clipPath id="clip0_117_2">
<rect width="56" height="56" fill="white" transform="matrix(1 0 0 -1 0 56)"/>
</clipPath>
</defs>
</svg>
