<svg width="24" height="24" viewBox="0 0 24 24" fill="none" xmlns="http://www.w3.org/2000/svg">
<g clip-path="url(#clip0_102_200)">
<path d="M12 1.00977C11.913 1.00977 11.8253 1.04991 11.7812 1.12891C11.7183 1.24241 10.2354 3.91229 10.0059 4.94629C9.90886 5.38379 10.0227 5.83148 10.3252 6.20898C10.7107 6.68948 11.368 7 12 7C12.632 7 13.2893 6.68948 13.6748 6.20898C13.9773 5.83148 14.0911 5.38379 13.9941 4.94629C13.7646 3.91279 12.2818 1.24241 12.2188 1.12891C12.1748 1.04991 12.087 1.00977 12 1.00977ZM10.7314 7.72559C10.5899 7.95209 10.5 8.2135 10.5 8.5V10.5H13.5V8.5C13.5 8.2135 13.4101 7.95209 13.2686 7.72559C12.8691 7.90059 12.435 8 12 8C11.565 8 11.1309 7.90059 10.7314 7.72559ZM6.25 11.5C4.734 11.5 3.5 12.734 3.5 14.25V15C3.5 15.437 3.5 16.25 5.625 16.25C6.9295 16.25 8.25 15.735 8.25 14.75C8.25 14.4735 8.4735 14.25 8.75 14.25C9.0265 14.25 9.25 14.4735 9.25 14.75C9.25 15.578 10.914 16.25 12 16.25C13.333 16.25 14.75 15.724 14.75 14.75C14.75 14.4735 14.9735 14.25 15.25 14.25C15.5265 14.25 15.75 14.4735 15.75 14.75C15.75 15.735 17.0705 16.25 18.375 16.25C20.5 16.25 20.5 15.437 20.5 15V14.25C20.5 12.734 19.266 11.5 17.75 11.5H6.25ZM8.80664 16.0205C8.21364 16.7795 7.067 17.25 5.625 17.25C4.715 17.25 4.014 17.0957 3.5 16.8057V20.5H20.5V16.8057C19.986 17.0957 19.285 17.25 18.375 17.25C16.9635 17.25 15.8369 16.7989 15.2334 16.0684C14.5994 16.7929 13.4305 17.25 12 17.25C11.0575 17.25 9.59814 16.8385 8.80664 16.0205H8.80664ZM2.25 21.5C1.836 21.5 1.5 21.836 1.5 22.25C1.5 22.664 1.836 23 2.25 23H21.75C22.164 23 22.5 22.664 22.5 22.25C22.5 21.836 22.164 21.5 21.75 21.5H2.25Z" fill="#64D1F8"/>
</g>
<defs>
<clipPath id="clip0_102_200">
<rect width="24" height="24" fill="white"/>
</clipPath>
</defs>
</svg>
