<svg width="172" height="172" viewBox="0 0 172 172" fill="none" xmlns="http://www.w3.org/2000/svg">
<g clip-path="url(#clip0_164_258)">
<path d="M85.832 7.16665C83.9305 7.2281 82.2031 8.2901 81.2899 9.95913C81.2899 9.95913 78.5506 14.9444 75.6069 20.8701C72.6643 26.7938 69.5209 33.1528 68.4053 38.2689C67.2182 43.6926 69.5697 48.8546 73.0244 52.1263C73.4233 52.504 73.9682 52.6669 74.3962 53.0081C72.8107 55.3129 71.6667 57.9389 71.6667 60.9167V71.6667H44.3927C31.8164 71.6667 21.5 81.9792 21.5 94.5594C21.5 100.799 24.3725 106.634 29.0096 110.39L34.1746 147.819C35.5144 157.531 43.9002 164.833 53.701 164.833H118.299C128.102 164.833 136.486 157.529 137.825 147.819L142.99 110.39C147.627 106.634 150.5 100.799 150.5 94.5594C150.5 81.9831 140.187 71.6667 127.607 71.6667H100.333V60.9167C100.333 57.9389 99.1893 55.3129 97.6038 53.0081C98.0318 52.6669 98.5768 52.504 98.9756 52.1263C102.428 48.8561 104.775 43.696 103.595 38.2759C102.48 33.1588 99.3367 26.7958 96.3931 20.8701C93.4494 14.9444 90.7101 9.95913 90.7101 9.95913C89.739 8.18462 87.854 7.1055 85.832 7.16665H85.832ZM86 24.1875C86.3812 24.9382 86.3677 24.8617 86.7629 25.6572C89.5955 31.3594 92.6276 38.4361 93.0897 40.5574C93.0897 40.5598 93.0897 40.5621 93.0897 40.5644C93.382 41.9034 92.9667 43.014 91.585 44.3227C90.2033 45.6313 87.8883 46.5833 86 46.5833C84.1117 46.5833 81.797 45.6315 80.415 44.3227C79.0331 43.014 78.6175 41.9024 78.9103 40.5644C78.9103 40.5621 78.9103 40.5598 78.9103 40.5574C79.3724 38.4363 82.4045 31.3594 85.2371 25.6572C85.6323 24.8617 85.6188 24.9382 86 24.1875ZM86 57.3333C88.0451 57.3333 89.5833 58.8716 89.5833 60.9166V71.6666H82.4166V60.9166C82.4166 58.8716 83.9549 57.3333 86 57.3333H86ZM44.3927 82.4167H76.1598C76.7369 82.5114 77.3255 82.5114 77.9025 82.4167H94.0765C94.6535 82.5114 95.2421 82.5114 95.8192 82.4167H127.607C134.377 82.4167 139.75 87.7929 139.75 94.5594C139.75 99.337 136.267 103.457 131.799 103.854C131.342 103.893 130.858 103.917 130.344 103.917C125.332 103.917 123.58 102.246 122.337 100.634C121.095 99.0223 120.868 97.6598 120.868 97.6598C120.442 95.0605 118.196 93.1522 115.562 93.1522C112.929 93.1522 110.683 95.0605 110.257 97.6598C110.257 97.6598 110.03 99.0223 108.788 100.634C107.545 102.246 105.793 103.917 100.781 103.917C95.7692 103.917 94.0173 102.246 92.7747 100.634C91.5322 99.0223 91.305 97.6598 91.305 97.6598C90.8798 95.0605 88.6338 93.1522 86 93.1522C83.3661 93.1522 81.1202 95.0605 80.695 97.6598C80.695 97.6598 80.4678 99.0223 79.2253 100.634C77.9827 102.246 76.2308 103.917 71.2188 103.917C66.2067 103.917 64.4548 102.246 63.2122 100.634C61.9697 99.0223 61.7425 97.6598 61.7425 97.6598C61.3173 95.0605 59.0713 93.1522 56.4375 93.1522C53.8036 93.1522 51.5577 95.0605 51.1325 97.6598C51.1325 97.6598 50.9053 99.0223 49.6628 100.634C48.4202 102.246 46.6683 103.917 41.6563 103.917C41.1351 103.917 40.6537 103.893 40.2005 103.854C35.7325 103.457 32.25 99.337 32.25 94.5594C32.25 87.7896 37.6262 82.4167 44.3927 82.4167H44.3927ZM56.4375 108.606C59.5818 111.782 64.3312 114.667 71.2187 114.667C78.1063 114.667 82.8557 111.782 86 108.606C89.1443 111.782 93.8937 114.667 100.781 114.667C107.669 114.667 112.418 111.782 115.562 108.606C118.707 111.782 123.456 114.667 130.344 114.667C130.758 114.667 131.146 114.629 131.548 114.611L127.173 146.35C126.556 150.823 122.815 154.083 118.299 154.083H53.701C49.19 154.083 45.4434 150.821 44.8267 146.35L40.4525 114.611C40.854 114.629 41.2419 114.667 41.6562 114.667C48.5438 114.667 53.2932 111.782 56.4375 108.606Z" fill="#64D1F8"/>
</g>
<defs>
<clipPath id="clip0_164_258">
<rect width="172" height="172" fill="white"/>
</clipPath>
</defs>
</svg>
