<svg version="1.1" xmlns="http://www.w3.org/2000/svg" xmlns:xlink="http://www.w3.org/1999/xlink" viewBox="0 0 172 172"><defs><linearGradient x1="35.991" y1="36.72917" x2="137.2775" y2="138.0085" gradientUnits="userSpaceOnUse" id="color-1"><stop offset="0" stop-color="#f44f5a"></stop><stop offset="0.443" stop-color="#ee3d4a"></stop><stop offset="1" stop-color="#e52030"></stop></linearGradient></defs><g fill="none" fill-rule="nonzero" stroke="none" stroke-width="1" stroke-linecap="butt" stroke-linejoin="miter" stroke-miterlimit="10" stroke-dasharray="" stroke-dashoffset="0" font-family="none" font-weight="none" font-size="none" text-anchor="none" style="mix-blend-mode: normal"><path d="M0,172v-172h172v172z" fill="none"></path><g><path d="M92.0845,17.329l4.56875,5.27467l6.03433,-3.50808c4.23908,-2.46533 9.675,-0.59842 11.50967,3.95242l2.60867,6.4715l6.84417,-1.35808c4.80883,-0.95317 9.34533,2.57642 9.60333,7.47483l0.3655,6.96958l6.91583,0.93883c4.859,0.65933 8.00158,5.47175 6.65425,10.18742l-1.91708,6.708l6.235,3.13183c4.38242,2.20017 5.79067,7.77583 2.9885,11.79633l-3.99183,5.72258l4.8805,4.988c3.42925,3.5045 2.95267,9.23425 -1.00333,12.126l-5.633,4.11725l2.99567,6.30308c2.107,4.429 -0.20425,9.69292 -4.88767,11.14417l-6.665,2.064l0.78833,6.93375c0.55183,4.86975 -3.33967,9.10167 -8.24167,8.95117l-6.97317,-0.21142l-1.505,6.81192c-1.05708,4.78733 -6.11317,7.525 -10.69983,5.79067l-6.52883,-2.46533l-3.63708,5.9555c-2.55492,4.18533 -8.22733,5.13133 -12.00058,2.00308l-5.39292,-4.45767l-5.375,4.4505c-3.77683,3.12825 -9.44567,2.18225 -12.00058,-2.00308l-3.63708,-5.9555l-6.52883,2.46533c-4.58667,1.73075 -9.64275,-1.00333 -10.69983,-5.79067l-1.505,-6.81192l-6.97317,0.21142c-4.902,0.1505 -8.7935,-4.08142 -8.24167,-8.95117l0.78833,-6.93375l-6.665,-2.064c-4.68342,-1.45125 -6.99467,-6.71517 -4.88767,-11.14417l2.99567,-6.30308l-5.633,-4.11725c-3.96317,-2.88458 -4.43617,-8.61433 -1.00692,-12.11883l4.8805,-4.988l-3.99183,-5.72258c-2.80575,-4.0205 -1.39392,-9.59258 2.9885,-11.79633l6.235,-3.13183l-1.91708,-6.708c-1.34733,-4.71208 1.79525,-9.52808 6.65425,-10.18742l6.91583,-0.93883l0.3655,-6.96958c0.25442,-4.89483 4.7945,-8.428 9.60333,-7.47483l6.84417,1.35808l2.60867,-6.4715c1.83108,-4.54725 7.27058,-6.41417 11.50967,-3.95242l6.03433,3.50808l4.56875,-5.27467c3.19633,-3.70517 8.944,-3.70517 12.15467,0z" fill="url(#color-1)"></path><path d="M132.225,91.16358v-10.33075h0.67367v-12.22633h-23.08025v22.55708h-6.76892v-22.55708h-13.38375v20.09175l-7.14517,-20.09175h-12.41267l-6.69367,18.37892c-0.46942,-0.94242 -1.03917,-1.83825 -1.79167,-2.62658c-0.20425,-0.21142 -0.41208,-0.41208 -0.62708,-0.60917l2.36858,1.65192v-15.08942l-2.31125,-0.8815c-1.16817,-0.44075 -2.44383,-0.774 -3.78758,-0.98542c-1.27567,-0.20067 -2.74842,-0.301 -4.37525,-0.301c-1.7415,0 -3.42567,0.1935 -4.99875,0.56617c-1.71642,0.41567 -3.27158,1.08575 -4.6225,1.98875c-1.462,0.98542 -2.63017,2.2575 -3.47225,3.76967c-0.8815,1.5695 -1.32583,3.40417 -1.32583,5.45383c0,2.5585 0.73458,4.80525 2.17867,6.69008l-2.064,-1.73433v16.04258l1.95292,0.99975c1.29,0.66292 2.80933,1.15742 4.515,1.4835c1.56592,0.29742 3.24292,0.44792 4.99158,0.44792c1.73075,0 3.397,-0.172 4.94142,-0.50525c1.00333,-0.21142 1.92783,-0.53033 2.80575,-0.91017l-0.33683,0.92808h14.48025l1.94575,-6.13825h4.57233l1.96367,6.13825h9.25217h5.21733h14.93533h3.45075h20.26733v-12.20483h-1.31508z" fill="#049000" opacity="0.05"></path><g fill="#000000" opacity="0.07"><path d="M61.67633,96.78583c0.73458,-1.30433 1.10367,-2.90608 1.10367,-4.7515c0,-1.36525 -0.20783,-2.54058 -0.62708,-3.5905c-0.41567,-1.04992 -1.02483,-1.9995 -1.82033,-2.83442c-0.74892,-0.774 -1.63758,-1.46558 -2.63375,-2.04608c-0.93167,-0.559 -2.01025,-1.0965 -3.21425,-1.59817c-0.76683,-0.31175 -1.45483,-0.62708 -2.06042,-0.92092c-0.53392,-0.26158 -0.99258,-0.52317 -1.36883,-0.80267c-0.2795,-0.20425 -0.47658,-0.39417 -0.59483,-0.56975l-0.03583,-0.43717c0.07167,-0.11108 0.1935,-0.22217 0.36192,-0.32608c0.22217,-0.13617 0.54108,-0.25442 0.92092,-0.344c0.4515,-0.10392 0.9675,-0.15767 1.52292,-0.15767c0.43717,0 0.89583,0.03942 1.38675,0.10033c0.4945,0.06808 0.98542,0.172 1.4835,0.30817c0.49092,0.13617 0.9675,0.30458 1.42975,0.51242c0.44075,0.20067 0.84567,0.42283 1.22192,0.68083l2.8165,1.96367v-10.42033l-1.15383,-0.44075c-1.04992,-0.39775 -2.20375,-0.69875 -3.42925,-0.89225c-1.1825,-0.18633 -2.56208,-0.2795 -4.09933,-0.2795c-1.60533,0 -3.14617,0.17558 -4.57592,0.51958c-1.505,0.3655 -2.86308,0.94242 -4.03842,1.72717c-1.2255,0.82775 -2.20733,1.892 -2.91325,3.1605c-0.72742,1.29717 -1.0965,2.838 -1.0965,4.5795c0,2.25392 0.67008,4.21758 1.99233,5.83008c1.24342,1.52292 3.09958,2.80217 5.5255,3.80908c0.82775,0.344 1.59817,0.67725 2.30408,0.99258c0.62708,0.29025 1.17533,0.5805 1.64475,0.903c0.35475,0.2365 0.62708,0.48733 0.80625,0.731c0.086,0.11825 0.12183,0.23292 0.07167,0.61275c-0.04658,0.08242 -0.14333,0.17558 -0.29742,0.26875c-0.14692,0.09675 -0.42283,0.23292 -0.90658,0.35117c-0.44075,0.1075 -0.989,0.16125 -1.62683,0.16125c-1.14308,0 -2.24317,-0.19708 -3.36117,-0.59483c-1.10725,-0.39775 -2.15,-0.99975 -3.08883,-1.79167l-2.9455,-2.4725v11.10117l0.97467,0.50167c1.15025,0.58767 2.50833,1.02842 4.03125,1.31867c1.45483,0.27592 3.02075,0.41567 4.65475,0.41567c1.60533,0 3.14617,-0.15767 4.57233,-0.46583c1.548,-0.32608 2.92758,-0.87792 4.09575,-1.63758c1.24342,-0.80267 2.24317,-1.87408 2.967,-3.17483z"></path><path d="M121.40333,92.95525v-2.72692h9.03v-8.62867h-9.03v-2.55492h9.70008v-8.643h-19.49692v22.55708h-10.35225v-22.55708h-9.80042v28.68458l-10.20175,-28.68458h-9.89358l-11.352,31.17858h10.60667l1.94575,-6.13825h7.19533l1.96367,6.13825h9.73592h0.88867h19.264h0.58408h19.55425v-8.6215h-10.3415zM75.03142,87.08575l1.07858,-3.36475l1.075,3.36475z"></path></g><path d="M42.16508,98.73158v-6.15975c1.118,0.93883 2.32917,1.63758 3.64067,2.107c1.3115,0.46942 2.62658,0.69875 3.96317,0.69875c0.78117,0 1.46558,-0.07167 2.04608,-0.21142c0.58408,-0.13975 1.075,-0.33683 1.462,-0.58767c0.39058,-0.24367 0.68442,-0.54467 0.87792,-0.8815c0.1935,-0.344 0.28667,-0.70592 0.28667,-1.10725c0,-0.5375 -0.15408,-1.02125 -0.46225,-1.44767c-0.30817,-0.41925 -0.72742,-0.81342 -1.26133,-1.16817c-0.53033,-0.3655 -1.16458,-0.70592 -1.89558,-1.04275c-0.731,-0.32967 -1.51933,-0.67367 -2.365,-1.02125c-2.15717,-0.89583 -3.76608,-1.99592 -4.82317,-3.2895c-1.06067,-1.29358 -1.58742,-2.86308 -1.58742,-4.69775c0,-1.43333 0.29025,-2.67317 0.86717,-3.70158c0.57692,-1.03558 1.36167,-1.88125 2.35425,-2.55492c0.99617,-0.6665 2.15,-1.15383 3.45792,-1.46917c1.30792,-0.31533 2.69467,-0.46942 4.15667,-0.46942c1.43333,0 2.709,0.08242 3.81625,0.258c1.11442,0.17558 2.13567,0.44075 3.07092,0.79908v5.75125c-0.46225,-0.3225 -0.9675,-0.602 -1.51217,-0.84567c-0.54467,-0.24367 -1.10725,-0.44075 -1.68417,-0.602c-0.57692,-0.16125 -1.15025,-0.2795 -1.72358,-0.35833c-0.56975,-0.07525 -1.11442,-0.11825 -1.62325,-0.11825c-0.70592,0 -1.34733,0.07167 -1.92425,0.20425c-0.57692,0.13258 -1.06783,0.3225 -1.462,0.56617c-0.39775,0.24367 -0.70592,0.5375 -0.9245,0.87433c-0.22217,0.344 -0.32967,0.72025 -0.32967,1.14667c0,0.46225 0.12183,0.87433 0.36908,1.23983c0.24008,0.37267 0.58767,0.71308 1.03917,1.04275c0.44792,0.32967 0.99258,0.645 1.634,0.96033c0.645,0.31533 1.36883,0.645 2.17508,0.97108c1.10367,0.46225 2.09267,0.95317 2.97058,1.47633c0.8815,0.51958 1.634,1.10725 2.26467,1.75583c0.62708,0.65933 1.11083,1.40825 1.4405,2.24675c0.33683,0.8385 0.50167,1.81317 0.50167,2.93117c0,1.54083 -0.29025,2.83442 -0.87433,3.87717c-0.58408,1.04992 -1.376,1.89558 -2.37575,2.54058c-0.99975,0.65217 -2.16433,1.11442 -3.49733,1.39392c-1.32583,0.28667 -2.7305,0.42642 -4.20325,0.42642c-1.51575,0 -2.95625,-0.12542 -4.3215,-0.38342c-1.36167,-0.25442 -2.54417,-0.64142 -3.54392,-1.15025z" fill="#ffffff"></path><path d="M89.80192,99.78867h-6.77608l-1.96367,-6.13825h-9.81475l-1.94575,6.13825h-6.73667l10.04767,-27.59525h7.3745zM79.63958,88.87742l-2.96342,-9.28083c-0.22217,-0.69158 -0.37267,-1.51933 -0.46225,-2.47608h-0.15408c-0.06808,0.80625 -0.22575,1.60892 -0.48375,2.40083l-3.00283,9.35608z" fill="#ffffff"></path><path d="M109.68225,99.78867h-16.43675v-27.59525h6.21708v22.55708h10.21967z" fill="#ffffff"></path><path d="M129.94958,99.78867h-16.55142v-27.59525h15.91358v5.05967h-9.70008v6.13825h9.03v5.04533h-9.03v6.31383h10.33792z" fill="#ffffff"></path></g></g></svg>