<svg width="21" height="21" viewBox="0 0 21 21" fill="none" xmlns="http://www.w3.org/2000/svg">
<g clip-path="url(#clip0_127_76)">
<path d="M10.5 1.74915C5.67538 1.74915 1.75 5.67452 1.75 10.4991C1.75 11.9321 2.12743 13.2715 2.7395 14.4657L1.79102 17.8615C1.5701 18.6504 2.35022 19.4305 3.13941 19.2098L6.53772 18.2614C7.73095 18.8721 9.06839 19.2491 10.5 19.2491C15.3246 19.2491 19.25 15.3238 19.25 10.4991C19.25 5.67452 15.3246 1.74915 10.5 1.74915V1.74915ZM10.5 3.06165C14.6153 3.06165 17.9375 6.38389 17.9375 10.4991C17.9375 14.6144 14.6153 17.9366 10.5 17.9366C9.18681 17.9366 7.95839 17.5952 6.88721 16.9984C6.73622 16.9143 6.55812 16.8931 6.3916 16.9395L3.15991 17.8409L4.06225 14.611C4.10887 14.4442 4.08768 14.2657 4.00329 14.1145C3.40535 13.0425 3.0625 11.8136 3.0625 10.4991C3.0625 6.3839 6.38475 3.06165 10.5 3.06165L10.5 3.06165ZM7.5426 6.5625C7.40304 6.5625 7.17754 6.61485 6.98547 6.82398C6.79385 7.03223 6.25403 7.53731 6.25403 8.56543C6.25403 9.59356 7.00225 10.5864 7.10681 10.7264C7.21094 10.8651 8.55196 13.043 10.676 13.8804C12.4409 14.576 12.7999 14.4375 13.1831 14.4025C13.5664 14.3683 14.4197 13.8978 14.5939 13.4095C14.768 12.9213 14.7681 12.5037 14.7169 12.4175C14.6649 12.3304 14.5253 12.2777 14.3162 12.1731C14.1075 12.0685 13.0808 11.5633 12.8892 11.4938C12.6975 11.4242 12.5575 11.3889 12.4183 11.598C12.2792 11.8071 11.879 12.2775 11.757 12.4166C11.6349 12.5566 11.5132 12.5742 11.3041 12.4696C11.0945 12.3642 10.4222 12.1441 9.62329 11.4323C9.00204 10.8788 8.5841 10.1947 8.46204 9.9856C8.34041 9.77735 8.4489 9.66289 8.55347 9.55921C8.64753 9.46558 8.7625 9.31555 8.86707 9.19348C8.97075 9.07142 9.00515 8.98483 9.07471 8.84571C9.14427 8.70702 9.10968 8.58455 9.05762 8.47998C9.00556 8.37542 8.59927 7.34166 8.41333 6.92823C8.25714 6.58085 8.09255 6.57332 7.94336 6.56763C7.82173 6.56282 7.68173 6.5625 7.5426 6.5625V6.5625Z" fill="white"/>
</g>
<defs>
<clipPath id="clip0_127_76">
<rect width="21" height="21" fill="white"/>
</clipPath>
</defs>
</svg>
