<svg width="172" height="172" viewBox="0 0 172 172" fill="none" xmlns="http://www.w3.org/2000/svg">
<g clip-path="url(#clip0_171_160)">
<path d="M80.2664 11.4667C77.1016 11.4667 74.5331 14.0352 74.5331 17.2V24.0307C45.2303 29.4487 22.9331 55.158 22.9331 86C22.9331 120.763 51.2369 149.067 85.9998 149.067C120.763 149.067 149.066 120.763 149.066 86C149.066 55.158 126.769 29.4487 97.4664 24.0307V17.2C97.4664 14.0352 94.8979 11.4667 91.7331 11.4667H80.2664ZM131.81 22.8773C129.477 22.878 127.377 24.2921 126.499 26.4536C125.622 28.6152 126.141 31.0931 127.813 32.7203L133.546 38.4536C134.984 39.9514 137.12 40.5547 139.129 40.0309C141.138 39.5072 142.707 37.9381 143.231 35.9289C143.755 33.9197 143.151 31.7844 141.653 30.3463L135.92 24.613C134.841 23.5034 133.358 22.8774 131.81 22.8773L131.81 22.8773ZM85.9998 34.4C114.566 34.4 137.6 57.4342 137.6 86C137.6 114.566 114.566 137.6 85.9998 137.6C57.434 137.6 34.3998 114.566 34.3998 86C34.3998 57.4342 57.434 34.4 85.9998 34.4ZM85.9102 45.7883C82.7482 45.8377 80.2231 48.4379 80.2664 51.6V76.0899C76.7249 78.1346 74.5403 81.9106 74.5331 86C74.5363 90.0934 76.7214 93.8747 80.2664 95.9214V103.2C80.2372 105.268 81.3235 107.191 83.1094 108.233C84.8954 109.276 87.1042 109.276 88.8901 108.233C90.676 107.191 91.7623 105.268 91.7331 103.2V95.9102C95.2746 93.8655 97.4592 90.0894 97.4664 86C97.4632 81.9066 95.2781 78.1254 91.7331 76.0787V51.6C91.7543 50.0503 91.1473 48.558 90.0503 47.4631C88.9533 46.3682 87.4599 45.7641 85.9102 45.7883H85.9102Z" fill="white"/>
</g>
<defs>
<clipPath id="clip0_171_160">
<rect width="172" height="172" fill="white"/>
</clipPath>
</defs>
</svg>
