<svg width="21" height="21" viewBox="0 0 21 21" fill="none" xmlns="http://www.w3.org/2000/svg">
<g clip-path="url(#clip0_127_83)">
<path d="M14.0001 2.625C11.6239 2.625 9.69543 4.54507 9.64395 6.90942C7.54297 6.65744 6.17485 5.87191 5.3356 5.0979C4.40489 4.23954 4.11026 3.47693 4.11026 3.47693C4.02267 3.25625 3.82274 3.10008 3.58742 3.06854C3.3521 3.037 3.1181 3.13501 2.97549 3.32483C2.97549 3.32483 2.18765 4.375 2.18765 5.90625C2.18765 6.78168 2.46406 7.42943 2.79349 7.97839C2.78135 7.97271 2.69949 7.94421 2.69949 7.94421C2.4865 7.83787 2.23263 7.8552 2.03607 7.98949C1.83951 8.12379 1.73107 8.35399 1.75271 8.59106C1.75271 8.59106 2.0053 10.4374 3.74112 11.7869L3.55996 11.8322C3.36062 11.8819 3.19609 12.0222 3.11538 12.2111C3.03467 12.4 3.04709 12.6159 3.14895 12.7943C3.14895 12.7943 3.4433 13.2922 4.05984 13.8163C4.4254 14.127 4.96239 14.4476 5.59536 14.7443C4.81802 15.0283 3.65888 15.3125 1.9689 15.3125C1.71133 15.3125 1.47756 15.4631 1.37115 15.6977C1.26473 15.9322 1.30535 16.2073 1.475 16.4011C1.475 16.4011 1.97648 16.9536 2.9678 17.4342C3.95912 17.9148 5.48617 18.375 7.6564 18.375C11.4713 18.375 14.2122 16.545 15.9228 14.2256C17.6333 11.9062 18.3751 9.12673 18.3751 7C18.3751 6.86505 18.3667 6.732 18.3546 6.6001C19.2783 5.71008 19.6249 5.04098 19.6415 5.00818C19.7246 4.84149 19.6937 4.6413 19.5646 4.5083C19.436 4.37486 19.2366 4.33729 19.0673 4.41516L18.9964 4.44763C18.9356 4.47563 18.8748 4.50381 18.8135 4.53137C18.9916 4.24744 19.1321 3.94401 19.2296 3.62988C19.2839 3.45663 19.2253 3.26679 19.0818 3.15478C18.9383 3.04279 18.7407 3.03079 18.5854 3.12573C18.0506 3.45072 17.5381 3.67823 17.0045 3.83069C16.2194 3.08589 15.1625 2.625 14.0001 2.625L14.0001 2.625ZM14.0001 3.9375C15.699 3.9375 17.0626 5.30111 17.0626 7C17.0626 8.81076 16.3826 11.3907 14.8666 13.4463C13.3506 15.5019 11.0603 17.0625 7.6564 17.0625C6.00912 17.0625 4.91336 16.7645 4.09231 16.4421C4.95236 16.3086 5.69288 16.1303 6.22513 15.9243C7.1481 15.567 7.64615 15.1544 7.64615 15.1544C7.83238 14.9946 7.91387 14.7442 7.8574 14.5054C7.80093 14.2665 7.61593 14.0792 7.37783 14.0197C6.18664 13.7219 5.42267 13.2402 4.94339 12.8387L5.62784 12.6678C5.90561 12.5985 6.1064 12.3571 6.12399 12.0714C6.14158 11.7856 5.97191 11.5214 5.70474 11.4186C4.285 10.8725 3.68881 10.1003 3.38394 9.45325C3.75493 9.53005 4.10035 9.625 4.5939 9.625C4.89816 9.62475 5.16236 9.41542 5.23217 9.11928C5.30199 8.82313 5.15911 8.51784 4.88699 8.38171C4.88699 8.38171 3.50015 7.74375 3.50015 5.90625C3.50015 5.57635 3.59152 5.36741 3.65823 5.11755C3.88712 5.42516 4.07576 5.72188 4.44522 6.06262C5.57164 7.10148 7.43344 8.16076 10.2464 8.31165C10.4262 8.32124 10.6022 8.25648 10.7329 8.13255C10.8636 8.00861 10.9377 7.83639 10.9377 7.65625V7C10.9377 5.30111 12.3013 3.9375 14.0001 3.9375H14.0001Z" fill="white"/>
</g>
<defs>
<clipPath id="clip0_127_83">
<rect width="21" height="21" fill="white"/>
</clipPath>
</defs>
</svg>
