<svg width="172" height="172" viewBox="0 0 172 172" fill="none" xmlns="http://www.w3.org/2000/svg">
<g clip-path="url(#clip0_164_273)">
<path d="M76.7969 8.35642C74.4811 8.37189 72.1359 8.62629 69.7842 9.14027C69.7819 9.14027 69.7796 9.14027 69.7772 9.14027L35.1547 16.7129C16.9177 20.6995 5.24018 38.8094 9.13352 57.0674L15.7683 88.1906C18.5159 101.08 27.2785 111.883 39.3189 117.242L45.6527 120.07L48.4802 142.717C49.7995 153.263 58.1542 161.617 68.6995 162.937C68.7018 162.937 68.7041 162.937 68.7065 162.937L96.2603 166.38C107.925 167.839 119.659 164.244 128.503 156.512C128.506 156.512 128.508 156.512 128.51 156.512L151.305 136.566C165.798 123.883 166.844 101.513 153.601 87.5327L129.224 61.7985C124.77 57.0972 119.261 53.986 113.407 52.4132L110.573 36.4422C108.048 22.2206 96.9495 11.6646 83.6207 9.00728C81.3992 8.5644 79.1128 8.34093 76.797 8.3564L76.7969 8.35642ZM76.9159 19.0854C88.0609 18.9759 97.9498 26.8673 99.9836 38.3248L102.286 51.2724C94.678 51.7622 87.1926 54.7839 81.2271 60.3777L69.2873 71.5757C52.2033 69.4824 40.9916 80.408 40.9916 80.408C39.5875 81.7562 39.0219 83.7581 39.5129 85.6417C40.004 87.5252 41.475 88.9962 43.3586 89.4873C45.2421 89.9783 47.244 89.4127 48.5922 88.0086C48.5922 88.0086 51.5992 84.9175 57.0466 83.1655C50.3031 89.9363 46.1618 98.7506 45.2258 108.109L43.6861 107.423C34.7784 103.458 28.3199 95.4793 26.2873 85.944L19.6456 54.8208C16.9599 42.2263 24.8706 29.9609 37.4503 27.2109L72.0798 19.6383C73.7039 19.2834 75.3238 19.1011 76.9159 19.0854H76.9159ZM86.0282 40.0325C84.0642 39.9763 82.226 40.996 81.2341 42.692C79.3814 45.7596 78.3635 45.5112 76.7969 45.3865C75.2304 45.2619 73.8505 44.5117 73.8505 44.5117C72.2041 43.4577 70.1154 43.3805 68.3957 44.3102C66.6761 45.2399 65.5967 47.0298 65.5769 48.9845C65.5571 50.9393 66.6001 52.7507 68.3005 53.715C68.3005 53.715 71.5192 55.7496 75.9431 56.1015C80.367 56.4535 86.7324 54.3834 90.4374 48.249C91.4558 46.6148 91.5224 44.5608 90.6119 42.8641C89.7014 41.1674 87.953 40.0873 86.0282 40.0325V40.0325ZM48.5222 46.6883C46.5582 46.632 44.72 47.6518 43.7281 49.3478C41.8753 52.4154 40.8575 52.1669 39.2909 52.0423C37.7243 51.9177 36.3445 51.1744 36.3445 51.1744C34.6981 50.1204 32.6093 50.0433 30.8897 50.973C29.1701 51.9026 28.0907 53.6925 28.0709 55.6473C28.0511 57.602 29.094 59.4134 30.7945 60.3777C30.7945 60.3777 34.0132 62.4053 38.4371 62.7573C42.8609 63.1093 49.2264 61.0391 52.9314 54.9048C53.9498 53.2706 54.0164 51.2165 53.1059 49.5198C52.1954 47.8232 50.447 46.7431 48.5222 46.6883V46.6883ZM105.198 61.8965C111.126 62.0723 116.993 64.5227 121.421 69.1961L145.797 94.9233C154.943 104.578 154.232 119.715 144.222 128.475L121.428 148.421C114.886 154.137 106.218 156.792 97.5971 155.714L70.0362 152.271C64.3132 151.555 59.8622 147.104 59.1462 141.381L55.9758 115.982C54.7659 106.306 58.2487 96.6567 65.361 89.9892L88.5827 68.2233C93.2795 63.8191 99.2693 61.7206 105.198 61.8965L105.198 61.8965ZM94.9586 75.25C93.0201 75.2226 91.2171 76.241 90.2399 77.9153C89.2627 79.5896 89.2627 81.6604 90.2399 83.3347C91.2171 85.009 93.0201 86.0274 94.9586 86C98.5419 86 98.854 86.9951 99.5567 88.4005C100.259 89.806 100.334 91.375 100.334 91.375C100.306 93.3134 101.325 95.1164 102.999 96.0936C104.673 97.0708 106.744 97.0708 108.418 96.0936C110.093 95.1164 111.111 93.3134 111.084 91.375C111.084 91.375 111.158 87.5689 109.173 83.5994C107.188 79.6299 102.125 75.25 94.9586 75.25L94.9586 75.25ZM80.6252 103.917C79.0785 103.916 77.6064 104.582 76.5853 105.743C75.5642 106.905 75.093 108.451 75.2922 109.985C75.2922 109.989 75.2922 109.994 75.2922 109.999C75.2983 110.164 75.3075 110.426 75.3132 110.803C75.3258 111.65 75.3328 112.899 75.3342 114.345C75.3364 117.236 75.3207 120.933 75.2992 124.08C75.2992 124.082 75.2992 124.085 75.2992 124.087C75.2619 130.617 80.3669 136.16 86.8751 136.664L103.504 137.944C106.05 138.141 108.384 136.519 109.086 134.063C109.789 131.608 108.667 128.997 106.401 127.817C97.5999 123.226 90.3859 116.098 85.6853 107.353L85.6783 107.339L85.3704 106.765L85.3634 106.772C85.3336 106.715 85.2795 106.597 85.2794 106.597C85.2789 106.596 84.6709 105.751 84.6705 105.75C84.67 105.75 83.2782 104.617 83.2777 104.617C83.2776 104.616 80.6257 103.917 80.6252 103.917V103.917ZM120.042 103.917C118.103 103.889 116.3 104.908 115.323 106.582C114.346 108.256 114.346 110.327 115.323 112.001C116.3 113.676 118.103 114.694 120.042 114.667C123.625 114.667 123.937 115.662 124.64 117.067C125.343 118.473 125.417 120.042 125.417 120.042C125.389 121.98 126.408 123.783 128.082 124.76C129.757 125.738 131.827 125.738 133.502 124.76C135.176 123.783 136.194 121.98 136.167 120.042C136.167 120.042 136.241 116.236 134.256 112.266C132.272 108.297 127.209 103.917 120.042 103.917L120.042 103.917Z" fill="#64D1F8"/>
</g>
<defs>
<clipPath id="clip0_164_273">
<rect width="172" height="172" fill="white"/>
</clipPath>
</defs>
</svg>
