<svg width="172" height="172" viewBox="0 0 172 172" fill="none" xmlns="http://www.w3.org/2000/svg">
<g clip-path="url(#clip0_164_253)">
<path d="M86.0002 7.16669C52.4217 7.16669 25.0835 34.5048 25.0835 68.0834C25.0835 82.0711 33.5393 98.8123 43.5321 115.472C53.5248 132.131 65.3809 148.25 73.2345 158.465C79.5987 166.741 92.4016 166.741 98.7658 158.465C106.621 148.25 118.475 132.131 128.468 115.472C138.461 98.8122 146.917 82.0711 146.917 68.0834C146.917 34.5048 119.579 7.16669 86.0002 7.16669H86.0002ZM86.0002 17.9167C113.768 17.9167 136.167 40.3152 136.167 68.0834C136.167 77.1866 128.886 93.8798 119.251 109.943C109.616 126.005 97.9481 141.893 90.2414 151.914C88.0199 154.803 83.9735 154.803 81.752 151.914C74.0467 141.893 62.3843 126.005 52.7494 109.943C43.1144 93.8797 35.8335 77.1866 35.8335 68.0834C35.8335 40.3152 58.232 17.9167 86.0002 17.9167H86.0002ZM86.0002 39.4377C85.2011 39.4372 84.4025 39.7002 83.7396 40.2215L63.6463 56.0456C61.9227 57.4073 60.9168 59.483 60.9168 61.6795V89.5833C60.9168 91.5613 62.5222 93.1667 64.5002 93.1667H75.2502C77.2282 93.1667 78.8335 91.5613 78.8335 89.5833V75.25C78.8335 73.272 80.4388 71.6667 82.4168 71.6667H89.5835C91.5615 71.6667 93.1668 73.272 93.1668 75.25V89.5833C93.1668 91.5613 94.7722 93.1667 96.7502 93.1667H107.5C109.478 93.1667 111.083 91.5613 111.083 89.5833V61.6795C111.083 59.483 110.078 57.4107 108.354 56.0526L88.2607 40.2215C87.5978 39.6984 86.7993 39.4381 86.0002 39.4377H86.0002Z" fill="#64D1F8"/>
</g>
<defs>
<clipPath id="clip0_164_253">
<rect width="172" height="172" fill="white"/>
</clipPath>
</defs>
</svg>
