<svg width="34" height="34" viewBox="0 0 34 34" fill="none" xmlns="http://www.w3.org/2000/svg">
<g clip-path="url(#clip0_102_186)">
<path d="M16.9998 4.2583C16.2672 4.2583 15.5351 4.41688 14.8555 4.73422L2.02938 10.7232C1.65538 10.8975 1.4165 11.2739 1.4165 11.6861C1.4165 12.0984 1.65538 12.4748 2.02938 12.649L14.8555 18.638C15.5475 18.961 16.2731 19.1222 16.9998 19.1222C17.7266 19.1222 18.4529 18.961 19.1442 18.638L24.0832 16.3318V25.1486C23.4758 25.6066 23.2288 26.4013 23.4695 27.1229C23.7103 27.8445 24.385 28.3318 25.1457 28.3333C25.9071 28.3325 26.5828 27.8451 26.8237 27.1227C27.0646 26.4004 26.8167 25.6049 26.2082 25.1472V15.4671C26.2492 15.202 26.1884 14.9312 26.038 14.709C26.0215 14.6843 26.004 14.6603 25.9854 14.637C25.8475 14.458 25.6561 14.3277 25.439 14.2649C25.438 14.2644 25.4371 14.264 25.4362 14.2635L18.606 11.0968C18.4877 10.9663 18.4165 10.799 18.4165 10.6236C18.4165 10.5237 18.4383 10.4232 18.4829 10.3276C18.6465 9.97197 19.0695 9.81874 19.4237 9.98307L26.8155 13.4099C27.3092 13.6387 27.6248 14.1338 27.6248 14.6785L31.9703 12.649C31.9845 12.6426 31.9887 12.636 32.0007 12.6296C32.2047 12.5255 32.3794 12.3596 32.4836 12.1357C32.7315 11.6038 32.5015 10.9711 31.9703 10.7232L19.1442 4.73421C18.4646 4.41688 17.7324 4.2583 16.9998 4.2583L16.9998 4.2583ZM7.08317 17.2808V24.4583C7.08317 25.9805 7.96431 27.3676 9.32715 27.9902C11.9189 29.1739 14.4115 29.75 16.9445 29.75H16.9998H17.004C18.9292 29.7429 20.9123 29.398 22.8311 28.7428C22.2935 28.1726 21.9582 27.4083 21.9582 26.5625C21.9582 25.8095 22.2302 25.1268 22.6665 24.5814V19.2647L19.7432 20.6288C18.8663 21.039 17.9433 21.2472 16.9998 21.2472C16.0563 21.2472 15.134 21.039 14.2564 20.6288L7.08317 17.2808Z" fill="#64D1F8"/>
</g>
<defs>
<clipPath id="clip0_102_186">
<rect width="34" height="34" fill="white"/>
</clipPath>
</defs>
</svg>
