<svg width="24" height="24" viewBox="0 0 24 24" fill="none" xmlns="http://www.w3.org/2000/svg">
<g clip-path="url(#clip0_128_160)">
<path d="M10.6995 1.66405C10.4151 1.66832 10.1289 1.70128 9.84398 1.76366L5.01195 2.8203C2.73395 3.3183 1.27693 5.57889 1.76293 7.85839L2.68968 12.2012C3.03869 13.8377 4.15968 15.2223 5.68968 15.9033L6.30883 16.1797C6.15583 14.4982 6.75566 12.826 7.94066 11.624C7.20916 11.8665 6.78851 12.2723 6.78051 12.2803C6.63451 12.4273 6.44223 12.5 6.25023 12.5C6.05823 12.5 5.86646 12.4268 5.71996 12.2803C5.42696 11.9873 5.42696 11.5127 5.71996 11.2197C5.79796 11.1417 7.30563 9.68089 9.67113 9.98339L11.3342 8.42479C12.4347 7.39279 13.9056 6.99214 15.2971 7.20214L14.9358 5.17284C14.7318 4.02434 14.0855 3.03425 13.1155 2.38475C12.388 1.89763 11.5526 1.65125 10.6995 1.66405V1.66405ZM11.9387 5.59569C12.083 5.58837 12.2312 5.62189 12.3645 5.70214C12.719 5.91614 12.8334 6.37791 12.6194 6.73241C12.1234 7.55491 11.4203 7.8369 10.7668 7.8369C10.2978 7.8369 9.85451 7.69061 9.53051 7.49511C9.17601 7.28111 9.06162 6.82081 9.27562 6.46581C9.48862 6.11331 9.94556 6.00002 10.2991 6.20702C10.5996 6.37802 11.0232 6.47402 11.3352 5.95702C11.4693 5.73514 11.6983 5.6079 11.9387 5.59569ZM6.70726 6.52343C6.85155 6.5161 6.99932 6.5506 7.13207 6.63085C7.48657 6.84535 7.59998 7.30662 7.38598 7.66112C6.88948 8.48362 6.18694 8.76561 5.53344 8.76561C5.06444 8.76561 4.62111 8.62029 4.29711 8.42479C3.94261 8.21129 3.82823 7.74952 4.04223 7.39452C4.25523 7.04202 4.71416 6.92971 5.06566 7.13671C5.36766 7.30771 5.7903 7.40223 6.1018 6.88573C6.23586 6.66386 6.46678 6.53563 6.70726 6.52343V6.52343ZM14.5813 8.14354C13.6608 8.14354 12.7388 8.47829 12.0178 9.15428L8.77855 12.1914C7.67355 13.2274 7.12669 14.7426 7.31469 16.2451L7.75707 19.79C7.88507 20.812 8.68867 21.6151 9.71117 21.7432L13.5559 22.2236C13.7489 22.2481 13.9468 22.2598 14.1448 22.2598C15.2968 22.2598 16.4072 21.8424 17.2727 21.0849L20.4534 18.3017C21.2289 17.6237 21.6827 16.6838 21.7307 15.6553C21.7792 14.6268 21.4153 13.6489 20.7073 12.9014L17.3059 9.31054C16.5709 8.53504 15.5768 8.14354 14.5813 8.14354H14.5813ZM13.2502 10.5C14.9012 10.5 15.5002 11.8455 15.5002 12.75C15.5002 13.164 15.1642 13.5 14.7502 13.5C14.3387 13.5 14.0042 13.1683 14.0002 12.7578C13.9912 12.4113 13.8537 12 13.2502 12C12.8362 12 12.5002 11.664 12.5002 11.25C12.5002 10.836 12.8362 10.5 13.2502 10.5ZM16.7502 14.5C18.4012 14.5 19.0002 15.8455 19.0002 16.75C19.0002 17.164 18.6642 17.5 18.2502 17.5C17.8387 17.5 17.5042 17.1683 17.5002 16.7578C17.4912 16.4113 17.3537 16 16.7502 16C16.3362 16 16.0002 15.664 16.0002 15.25C16.0002 14.836 16.3362 14.5 16.7502 14.5V14.5ZM11.3069 14.5019C11.4813 14.515 11.6512 14.5894 11.7825 14.7217C11.8565 14.7962 11.9086 14.8471 11.9436 14.9541L11.9543 14.9766C12.6128 16.2031 13.6134 17.1914 14.8469 17.8349C15.1629 17.9995 15.3189 18.3635 15.2209 18.706C15.1279 19.0295 14.8332 19.25 14.5012 19.25C14.4822 19.25 14.4621 19.2491 14.4426 19.2471L12.1223 19.0693C11.2103 18.9988 10.5011 18.2284 10.5071 17.3144C10.5166 15.8294 10.5106 15.4471 10.5071 15.3496C10.4716 15.0856 10.5794 14.8145 10.8039 14.6475C10.9539 14.537 11.1324 14.4889 11.3069 14.5019L11.3069 14.5019Z" fill="#64D1F8"/>
</g>
<defs>
<clipPath id="clip0_128_160">
<rect width="24" height="24" fill="white"/>
</clipPath>
</defs>
</svg>
