<svg width="21" height="21" viewBox="0 0 21 21" fill="none" xmlns="http://www.w3.org/2000/svg">
<g clip-path="url(#clip0_127_66)">
<path d="M10.5 2.1875C5.69456 2.1875 1.75 5.89662 1.75 10.5C1.75 12.8587 2.81575 14.9663 4.469 16.4729L4.43738 18.0118C4.41302 19.2403 5.80576 20.0609 6.86841 19.444L8.43384 18.5356C9.09835 18.6911 9.78047 18.8125 10.5 18.8125C15.3054 18.8125 19.25 15.1034 19.25 10.5C19.25 5.89662 15.3054 2.1875 10.5 2.1875V2.1875ZM10.5 3.5C14.6344 3.5 17.9375 6.64651 17.9375 10.5C17.9375 14.3535 14.6344 17.5 10.5 17.5C9.79399 17.5 9.11223 17.4015 8.45948 17.2266C8.291 17.1813 8.11144 17.205 7.96045 17.2924L6.2096 18.3092C5.97471 18.4457 5.74449 18.3102 5.74988 18.0383L5.78662 16.2302C5.79045 16.0319 5.70438 15.8425 5.55249 15.715C4.02042 14.4265 3.0625 12.5737 3.0625 10.5C3.0625 6.64651 6.36557 3.5 10.5 3.5H10.5ZM14.9075 7.922C14.7962 7.90176 14.6772 7.92336 14.5768 7.99292L11.6826 9.99756L10.1719 8.66882L10.0659 8.57568L10.0078 8.52783C9.55544 8.18658 8.91181 8.27712 8.57056 8.72949L5.82678 12.3679L5.81824 12.3782C5.70667 12.5265 5.69686 12.7354 5.80798 12.896C5.94711 13.0964 6.22241 13.1462 6.42322 13.0071L9.31738 11.0024L10.8281 12.332L10.9341 12.4252L10.9922 12.4722C11.4446 12.8134 12.0882 12.7237 12.4294 12.2714L15.1732 8.63294L15.1818 8.62183C15.2933 8.47352 15.3031 8.26542 15.192 8.10486C15.1225 8.00467 15.0188 7.94223 14.9075 7.922V7.922Z" fill="white"/>
</g>
<defs>
<clipPath id="clip0_127_66">
<rect width="21" height="21" fill="white"/>
</clipPath>
</defs>
</svg>
