<svg width="172" height="172" viewBox="0 0 172 172" fill="none" xmlns="http://www.w3.org/2000/svg">
<g clip-path="url(#clip0_164_268)">
<path d="M86 21.535C82.304 21.535 78.6088 22.3426 75.152 23.9565L10.2671 54.2539C8.37463 55.1372 7.16504 57.0366 7.16504 59.125C7.16504 61.2134 8.37463 63.1128 10.2671 63.9961L39.1647 77.4896C38.2711 81.3214 35.8333 92.7328 35.8333 103.917C35.8333 117.014 37.8629 128.167 37.8629 128.167C38.3269 130.725 40.5545 132.584 43.154 132.583C56.2904 132.583 68.7553 133.908 81.9967 148.708C83.0164 149.846 84.4721 150.496 86 150.496C87.5279 150.496 88.9836 149.846 90.0033 148.708C103.244 133.908 115.713 132.583 128.846 132.583C131.445 132.584 133.673 130.725 134.137 128.167C134.137 128.167 136.167 117.014 136.167 103.917C136.167 92.7328 133.729 81.3214 132.835 77.4896L154.062 67.5794L153.957 120.049C150.95 122.402 149.766 126.403 151.006 130.014C152.247 133.625 155.64 136.053 159.458 136.062C163.338 136.056 166.774 133.554 167.969 129.863C169.164 126.172 167.848 122.131 164.707 119.853L164.833 59.3139V59.3069C164.834 59.251 164.834 59.195 164.833 59.139C164.834 59.111 164.834 59.083 164.833 59.055C164.831 58.9288 164.824 58.8028 164.812 58.6771C164.802 58.5295 164.786 58.3824 164.763 58.2361C164.446 56.1687 162.958 54.4732 160.949 53.89L96.848 23.9565C93.3912 22.3426 89.696 21.535 86 21.535L86 21.535ZM86 32.215C88.0928 32.215 90.1835 32.7111 92.2988 33.6987L146.749 59.125L92.2988 84.5513C88.0682 86.5265 83.9318 86.5265 79.7012 84.5513L25.2513 59.125L79.7012 33.6987C81.8165 32.7111 83.9071 32.215 86 32.215H86ZM49.1938 82.1717L75.152 94.2935C82.0655 97.5213 89.9344 97.5213 96.848 94.2935L122.806 82.1717C123.816 87.0816 125.417 95.9632 125.417 103.917C125.417 113.69 124.354 119.254 123.898 122.127C112.019 122.691 98.6303 126.115 86 138.042C73.3706 126.116 59.9827 122.691 48.102 122.127C47.6455 119.254 46.5833 113.69 46.5833 103.917C46.5833 95.9632 48.1838 87.0816 49.1938 82.1717H49.1938Z" fill="#64D1F8"/>
</g>
<defs>
<clipPath id="clip0_164_268">
<rect width="172" height="172" fill="white"/>
</clipPath>
</defs>
</svg>
